<?xml version="1.0" encoding="UTF-8" standalone="no"?><!DOCTYPE svg PUBLIC "-//W3C//DTD SVG 1.1//EN" "http://www.w3.org/Graphics/SVG/1.1/DTD/svg11.dtd"><svg width="100%" height="100%" viewBox="0 0 3508 2481" version="1.1" xmlns="http://www.w3.org/2000/svg" xmlns:xlink="http://www.w3.org/1999/xlink" xml:space="preserve" xmlns:serif="http://www.serif.com/" style="fill-rule:evenodd;clip-rule:evenodd;stroke-linejoin:round;stroke-miterlimit:2;"><rect id="Artboard1" x="0" y="0" width="3507.874" height="2480.315" style="fill:none;"/><clipPath id="_clip1"><rect id="Artboard11" serif:id="Artboard1" x="0" y="0" width="3507.874" height="2480.315"/></clipPath><g clip-path="url(#_clip1)"><g><path d="M1900.119,0.332c0.003,-0 0.198,-0.001 0.294,-0.002c249.719,29.287 447.826,101.584 608.463,206.915c47.241,30.976 91.241,64.809 132.361,101.245c62.051,54.983 117.541,115.894 167.708,181.861c12.227,16.078 24.137,32.456 35.75,49.122c34.081,48.914 65.593,100.306 94.987,153.857l-613.573,-302.746c-24.278,-18.527 -49.105,-36.305 -74.411,-53.277l-351.577,-336.975Zm-198.521,2479.319l-25.068,0.664c1.912,-0.261 3.819,-0.529 5.721,-0.805c417.416,-60.483 590.318,-477.495 408.517,-860.756c-181.785,-311.498 -508.673,-585.922 -705.641,-934.367c-183.396,-324.436 -85.302,-643.297 421.295,-680.475c-489.006,49.62 -724.163,342.227 -228.194,950.919l399.034,480.979c412.125,552.368 105.683,975.333 -275.665,1043.84Zm236.883,-2225.877c88.41,-0.755 189.965,24.496 296.55,78.253c27.136,16.617 53.309,34.073 78.525,52.234c-142.186,-82.643 -268.134,-128.246 -375.075,-130.487Zm-257.468,124.873c26.795,-40.622 63.336,-71.785 107.456,-92.822c-40.352,20.601 -76.264,51.328 -107.456,92.822Zm187.853,518.882c-154.307,-144.076 -255.03,-341.532 -207.076,-484.578c3.035,-6.445 6.277,-12.704 9.719,-18.776c-55.391,142.818 24.176,311.479 191.034,496.855c2.104,2.17 4.212,4.337 6.323,6.5Zm472.467,460.934c-25.52,-28.298 -52.473,-57.075 -80.628,-86.252c1.481,1.517 2.959,3.035 4.434,4.554c8.892,8.312 17.602,16.716 26.13,25.204c55.282,55.025 102.887,113.616 142.484,174.139c11.973,18.301 23.215,36.779 33.715,55.388c-39.162,-62.443 -81.323,-119.872 -126.134,-173.033Zm234.364,538.344c-1.755,-40.409 -6.431,-79.762 -13.919,-118.128c8.134,39.807 12.803,79.324 13.919,118.128Zm0.136,5.579c4.156,207.499 -93.72,393.967 -306.743,494.507c-28.531,10.908 -57.26,20.632 -86.184,29.179c251.969,-76.897 397.271,-268.903 390.454,-520.918c0.827,-0.922 1.651,-1.845 2.473,-2.769Z" style="fill:url(#_Linear2);"/><path d="M2182.905,2426.073c142.897,-42.225 281.007,-113.17 414.175,-213.768c171.951,-144.702 291.635,-307.805 381.617,-512.585c147.581,-424.911 119.596,-822.14 -148.827,-1180.408c-213.788,-304.594 -508.889,-450.288 -929.754,-518.982l351.579,336.977c249.137,167.092 451.902,412.239 540.448,682.173c68.616,209.176 44.765,591.754 -218.784,885.675c6.817,252.015 -138.485,444.021 -390.454,520.918Z" style="fill:url(#_Linear3);"/><path d="M1873.301,901.643c-156.805,-144.412 -259.923,-344.279 -211.511,-488.691c81.622,-173.301 312.365,-212.5 573.241,-80.924c364.532,223.229 555.42,597.892 584.094,797.862c32.85,401.176 -99.606,615.513 -243.108,775.266c-6.869,-205.877 -89.199,-384.42 -232.882,-544.692c-129.547,-143.919 -296.379,-300.266 -469.834,-458.821Z" style="fill:url(#_Linear4);"/><path d="M2498.591,1583.301c91.188,-164.396 108.405,-364.875 40.04,-607.102c-72.228,-176.107 -190.754,-302.354 -342.029,-393.333c-135.945,-91.664 -347.403,-74.076 -398.655,33.035c-49.411,85.786 -10.383,195.439 54.198,261.559c133.431,136.61 248.666,232.185 355.858,341.564c109.478,101.294 207.604,220.02 290.588,364.277Z" style="fill:url(#_Linear5);"/><path d="M1290.438,2475.984c527.065,-106.696 565.808,-583.188 321.938,-913.918c-67.817,-91.971 -202.142,-241.829 -328.96,-396.694c-6.78,-11.439 -14.257,-22.724 -22.43,-33.839c37.751,51.289 103.046,131.02 142.997,177.3c114.795,132.983 225.921,249.753 288.356,385.231c71.099,154.279 96.889,325.175 35.774,464.083c-81.707,185.709 -213.669,253.984 -350.733,301.107c-24.493,5.831 -51.471,12.488 -86.942,16.729Zm391.813,3.527c417.416,-60.483 590.318,-477.495 408.517,-860.756c-181.785,-311.498 -508.673,-585.922 -705.641,-934.367c-183.396,-324.436 -85.302,-643.297 421.295,-680.475c-489.006,49.62 -724.163,342.227 -228.194,950.919l399.034,480.979c412.125,552.368 105.683,975.334 -275.665,1043.841l-19.346,-0.141Z" style="fill:url(#_Linear6);"/><path d="M1290.438,2475.984c527.065,-106.696 565.808,-583.188 321.938,-913.918c-67.817,-91.971 -202.142,-241.829 -328.96,-396.694c-6.78,-11.439 -14.257,-22.724 -22.43,-33.839c37.751,51.289 103.046,131.02 142.997,177.3c114.795,132.983 225.921,249.753 288.356,385.231c71.099,154.279 96.889,325.175 35.774,464.083c-81.707,185.709 -213.669,253.984 -350.733,301.107c-24.493,5.831 -51.471,12.488 -86.942,16.729Zm-29.452,-1344.451c-0.063,-0.086 -0.126,-0.172 -0.189,-0.257c0.063,0.086 0.126,0.172 0.189,0.257Z" style="fill:url(#_Linear7);"/><path d="M1290.438,2475.984c-29.72,3.554 -65.402,5.412 -110.583,3.668c-160.951,-8.767 -283.616,-107.28 -302.915,-274.823c-5.479,-107.513 24.353,-193.839 77.249,-266.327c30.418,-48.541 62.39,-88.327 99.881,-136.868c73.342,-94.959 166.851,-179.703 238.778,-293.633c56.402,-118.74 53.054,-237.213 -9.432,-342.628c126.818,154.865 261.143,304.722 328.96,396.694c243.87,330.73 205.127,807.222 -321.938,913.918Z" style="fill:url(#_Linear8);"/><path d="M1283.416,1165.372c-11.437,-13.966 -22.812,-27.973 -34.072,-41.981c-529.794,-659.105 -199.915,-1122.769 603.221,-1123.391c-15.615,1.073 -31,2.376 -46.142,3.913c-506.597,37.178 -604.691,356.039 -421.295,680.475c196.967,348.444 523.856,622.868 705.641,934.367c181.801,383.261 8.899,800.273 -408.517,860.756l-395.055,-2.876c1.083,-0.215 2.163,-0.432 3.242,-0.65c35.472,-4.241 62.449,-10.898 86.942,-16.729c137.064,-47.122 269.026,-115.398 350.733,-301.107c61.116,-138.908 35.325,-309.804 -35.774,-464.083c-62.435,-135.479 -173.562,-252.248 -288.356,-385.231c-39.95,-46.28 -105.246,-126.011 -142.997,-177.3c8.172,11.115 15.649,22.4 22.43,33.839Z" style="fill:url(#_Linear9);"/><path d="M1806.422,3.913c29.809,-2.188 61.033,-3.4 93.696,-3.581l351.577,336.975c25.306,16.972 50.133,34.75 74.411,53.277l-11.089,-5.472c-0.488,-0.284 -0.975,-0.568 -1.462,-0.851c-25.216,-18.161 -51.389,-35.617 -78.525,-52.234c-106.585,-53.758 -208.14,-79.008 -296.55,-78.253c-55.194,-1.157 -105.325,9.237 -150.011,32.051c-44.12,21.037 -80.661,52.201 -107.456,92.822c-2.462,3.275 -4.895,6.618 -7.298,10.028c-0.757,1.829 -1.493,3.662 -2.205,5.5c-3.442,6.072 -6.683,12.331 -9.719,18.776c-47.954,143.046 52.768,340.503 207.076,484.578c128.434,131.575 269.256,249.112 391.839,374.683c28.155,29.177 55.108,57.953 80.628,86.252c44.811,53.162 86.972,110.59 126.134,173.033c45.783,81.143 77.472,164.785 94.31,247.183c7.489,38.366 12.164,77.719 13.919,118.128c0.054,1.861 0.099,3.721 0.136,5.579c-0.822,0.924 -1.646,1.847 -2.473,2.769c6.817,252.015 -138.485,444.021 -390.454,520.918c28.925,-8.547 57.653,-18.271 86.184,-29.179c-90.083,42.516 -200.758,69.666 -333.017,76.542l-234.476,6.214c381.349,-68.507 687.79,-491.472 275.665,-1043.84l-399.034,-480.979c-495.969,-608.692 -260.812,-901.299 228.194,-950.919Z" style="fill:url(#_Linear10);"/></g></g><defs><linearGradient id="_Linear2" x1="0" y1="0" x2="1" y2="0" gradientUnits="userSpaceOnUse" gradientTransform="matrix(-1362.768977,1016.829522,-1016.829522,-1362.768977,1481.912718,-81.507424)"><stop offset="0" style="stop-color:#fff;stop-opacity:1"/><stop offset="0.39" style="stop-color:#f00;stop-opacity:1"/><stop offset="0.7" style="stop-color:#ff3f3f;stop-opacity:1"/><stop offset="1" style="stop-color:#fff;stop-opacity:1"/></linearGradient><linearGradient id="_Linear3" x1="0" y1="0" x2="1" y2="0" gradientUnits="userSpaceOnUse" gradientTransform="matrix(-364.400836,1831.540429,-1831.540429,-364.400836,2989.559059,389.672287)"><stop offset="0" style="stop-color:#fff;stop-opacity:1"/><stop offset="0.34" style="stop-color:#ffb5b5;stop-opacity:1"/><stop offset="0.68" style="stop-color:#f00;stop-opacity:1"/><stop offset="1" style="stop-color:#900;stop-opacity:1"/></linearGradient><linearGradient id="_Linear4" x1="0" y1="0" x2="1" y2="0" gradientUnits="userSpaceOnUse" gradientTransform="matrix(-968.167633,-2425.743079,2425.743079,-968.167633,2856.739908,2426.073308)"><stop offset="0" style="stop-color:#000;stop-opacity:1"/><stop offset="0.44" style="stop-color:#f00;stop-opacity:1"/><stop offset="1" style="stop-color:#fa7b7b;stop-opacity:1"/></linearGradient><linearGradient id="_Linear5" x1="0" y1="0" x2="1" y2="0" gradientUnits="userSpaceOnUse" gradientTransform="matrix(966.408065,1377.327971,-1377.327971,966.408065,1504.180185,71.164714)"><stop offset="0" style="stop-color:#000;stop-opacity:1"/><stop offset="1" style="stop-color:#f00;stop-opacity:1"/></linearGradient><linearGradient id="_Linear6" x1="0" y1="0" x2="1" y2="0" gradientUnits="userSpaceOnUse" gradientTransform="matrix(803.017832,1720.467171,-1720.467171,803.017832,1195.500119,467.525625)"><stop offset="0" style="stop-color:#f00;stop-opacity:1"/><stop offset="0.5" style="stop-color:#e6a2a2;stop-opacity:1"/><stop offset="0.74" style="stop-color:#ed7676;stop-opacity:1"/><stop offset="1" style="stop-color:#f00;stop-opacity:1"/></linearGradient><linearGradient id="_Linear7" x1="0" y1="0" x2="1" y2="0" gradientUnits="userSpaceOnUse" gradientTransform="matrix(815.425114,-273.930362,273.930362,815.425114,1223.610102,2179.08581)"><stop offset="0" style="stop-color:#f00;stop-opacity:1"/><stop offset="1" style="stop-color:#000;stop-opacity:1"/></linearGradient><linearGradient id="_Linear8" x1="0" y1="0" x2="1" y2="0" gradientUnits="userSpaceOnUse" gradientTransform="matrix(815.425114,-273.930362,273.930362,815.425114,1223.610102,2179.08581)"><stop offset="0" style="stop-color:#f00;stop-opacity:1"/><stop offset="1" style="stop-color:#000;stop-opacity:1"/></linearGradient><linearGradient id="_Linear9" x1="0" y1="0" x2="1" y2="0" gradientUnits="userSpaceOnUse" gradientTransform="matrix(803.017832,1720.467171,-1720.467171,803.017832,1195.500119,467.525625)"><stop offset="0" style="stop-color:#f00;stop-opacity:1"/><stop offset="0.5" style="stop-color:#e6a2a2;stop-opacity:1"/><stop offset="0.74" style="stop-color:#ed7676;stop-opacity:1"/><stop offset="1" style="stop-color:#f00;stop-opacity:1"/></linearGradient><linearGradient id="_Linear10" x1="0" y1="0" x2="1" y2="0" gradientUnits="userSpaceOnUse" gradientTransform="matrix(-1362.768977,1016.829522,-1016.829522,-1362.768977,1481.912718,-81.507424)"><stop offset="0" style="stop-color:#fff;stop-opacity:1"/><stop offset="0.39" style="stop-color:#f00;stop-opacity:1"/><stop offset="0.7" style="stop-color:#ff3f3f;stop-opacity:1"/><stop offset="1" style="stop-color:#fff;stop-opacity:1"/></linearGradient></defs></svg>